<?xml version="1.0" encoding="UTF-8"?>
<svg xmlns="http://www.w3.org/2000/svg" xmlns:xlink="http://www.w3.org/1999/xlink" width="16pt" height="16pt" viewBox="0 0 16 16" version="1.1">
<g id="surface20359425">
<path style=" stroke:none;fill-rule:nonzero;fill:rgb(80%,80%,80%);fill-opacity:1;" d="M 7.203125 1.332031 C 6.859375 1.332031 6.53125 1.46875 6.285156 1.714844 L 6 2 L 2.667969 2 C 2.425781 1.996094 2.203125 2.121094 2.082031 2.332031 C 1.960938 2.539062 1.960938 2.796875 2.082031 3.003906 C 2.203125 3.210938 2.425781 3.335938 2.667969 3.332031 L 13.332031 3.332031 C 13.574219 3.335938 13.796875 3.210938 13.917969 3.003906 C 14.039062 2.796875 14.039062 2.539062 13.917969 2.332031 C 13.796875 2.121094 13.574219 1.996094 13.332031 2 L 10 2 L 9.714844 1.714844 C 9.46875 1.46875 9.140625 1.332031 8.796875 1.332031 Z M 2.910156 4.667969 L 3.929688 13.507812 C 4.015625 14.167969 4.585938 14.667969 5.25 14.667969 L 10.75 14.667969 C 11.414062 14.667969 11.984375 14.167969 12.070312 13.503906 L 13.089844 4.667969 Z M 2.910156 4.667969 "/>
</g>
</svg>
